:SAMPLES-PER-SECOND 30
:FULLY-SPECIFIED
:DEGREES
70
root  2.047 41.0747 -1.05474 -177.552 -87.9897 176.691
RightUpLeg  1.94408 -7.73624 -6.01035
RightLeg  1.98914 -0.769705 2.87635
RightFoot  -1.661 -0.0676671 0.682867
RightToes  -4.65663e-010 0 -3.6325e-017
Spine  -4.19185 0.226217 1.7871
Spine1  12.4874 0.0841698 -0.0305635
HEad  -9.46038 1.60947 -1.93767
LeftShoulder1  8.82719 -12.0747 -49.4625
LeftArm  -1.30231 15.2891 -31.4511
LeftForeArm  25.0754 -14.9619 -5.87906
LeftHand  -0.244104 0.0205437 5.32207
RightShoulder  6.84123 10.288 43.2419
RightArm  -5.55341 -15.8202 31.965
RightForeArm  -2.45647 11.9437 7.49428
RightHand  -0.199953 -2.66235 -7.93909
LeftUpLeg  2.89944 6.27548 4.66225
LeftLeg  0.497608 12.3124 -4.29622
LeftFoot  -1.91507 0.0357521 -0.237224
LeftToes  4.18335e-011 1.59304e-011 3.38507e-012
71
root  2.04766 41.0746 -1.0266 -177.758 -87.8058 176.87
RightUpLeg  1.96764 -7.74227 -6.04996
RightLeg  1.92975 -0.586724 2.85741
RightFoot  -1.59522 -0.0697691 0.71549
RightToes  -4.65663e-010 0 -3.6325e-017
Spine  -4.21886 0.226129 1.87638
Spine1  12.5859 0.125005 -0.17854
HEad  -9.19589 1.70719 -1.84512
LeftShoulder1  8.90667 -12.2583 -49.328
LeftArm  -0.573438 15.9351 -32.0401
LeftForeArm  24.6807 -16.2188 -5.44276
LeftHand  -0.244104 0.0205437 5.32207
RightShoulder  6.77893 10.2545 42.935
RightArm  1.58476 -15.1105 29.8978
RightForeArm  0.615324 13.4006 7.73895
RightHand  -0.111809 -3.42227 -5.85436
LeftUpLeg  2.97618 6.24528 4.61053
LeftLeg  0.44828 12.5273 -4.30278
LeftFoot  -1.92652 0.0359468 -0.23461
LeftToes  4.18335e-011 1.59304e-011 3.38507e-012
72
root  2.05276 41.0746 -1.00272 -177.882 -87.5447 177.048
RightUpLeg  1.84493 -7.74312 -6.07706
RightLeg  1.94119 -0.331381 2.85058
RightFoot  -1.54794 -0.0713179 0.739528
RightToes  -4.65663e-010 0 -3.6325e-017
Spine  -4.33355 0.319082 2.35413
Spine1  12.7312 0.340934 -0.679932
HEad  -9.06965 1.69149 -1.82025
LeftShoulder1  8.86416 -12.253 -49.1089
LeftArm  0.100404 16.0882 -31.498
LeftForeArm  23.0004 -16.9965 -5.24106
LeftHand  -0.244104 0.0205437 5.32207
RightShoulder  6.76028 10.3259 42.5744
RightArm  8.17377 -14.7295 28.4971
RightForeArm  0.89347 15.1148 7.59166
RightHand  -0.126847 -3.35305 -6.34715
LeftUpLeg  2.96346 6.20204 4.54224
LeftLeg  0.398261 12.84 -4.29593
LeftFoot  -1.93188 0.0368445 -0.242693
LeftToes  4.18335e-011 1.59304e-011 3.38507e-012
73
root  2.06447 41.0748 -0.988305 -177.694 -87.4758 176.917
RightUpLeg  1.71751 -7.75849 -6.10362
RightLeg  2.00434 -0.249251 2.86027
RightFoot  -1.54425 -0.0728101 0.762688
RightToes  -4.65663e-010 0 -3.6325e-017
Spine  -4.38181 0.343375 2.79157
Spine1  12.7819 0.467254 -1.11975
HEad  -9.02807 1.71388 -1.94878
LeftShoulder1  8.74814 -12.1425 -48.8072
LeftArm  2.57157 15.9223 -30.3928
LeftForeArm  20.4703 -17.9613 -5.14802
LeftHand  -0.244104 0.0205437 5.32207
RightShoulder  6.71195 10.3685 42.1105
RightArm  11.7129 -14.4153 27.6647
RightForeArm  0.657363 15.9739 7.40696
RightHand  -0.182838 -2.98768 -8.2984
LeftUpLeg  2.87789 6.16959 4.48957
LeftLeg  0.413763 12.9507 -4.27781
LeftFoot  -1.93297 0.0373918 -0.245117
LeftToes  4.18335e-011 1.59304e-011 3.38507e-012
74
root  2.07984 41.0752 -0.99139 -177.08 -87.6392 176.269
RightUpLeg  1.74179 -7.78575 -6.13015
RightLeg  2.03886 -0.378984 2.86867
RightFoot  -1.55793 -0.0728672 0.763574
RightToes  -4.65663e-010 0 -3.6325e-017
Spine  -4.26964 0.257404 2.80475
Spine1  12.7211 0.380956 -1.12902
HEad  -8.94391 1.89434 -2.15618
LeftShoulder1  8.67525 -12.0992 -48.5331
LeftArm  5.42474 15.7567 -29.2894
LeftForeArm  19.0657 -19.1842 -4.88079
LeftHand  -0.244104 0.0205437 5.32207
RightShoulder  6.64001 10.3364 41.7302
RightArm  12.066 -13.767 27.1627
RightForeArm  2.59665 15.4492 7.57759
RightHand  -0.222124 -2.72968 -9.28758
LeftUpLeg  2.86124 6.17965 4.49011
LeftLeg  0.42585 12.7752 -4.29551
LeftFoot  -1.90361 0.0371275 -0.234724
LeftToes  4.18335e-011 1.59304e-011 3.38507e-012
75
root  2.0949 41.0756 -1.00448 -176.277 -87.8035 175.37
RightUpLeg  1.84968 -7.8027 -6.14703
RightLeg  2.04752 -0.513781 2.85909
RightFoot  -1.56496 -0.0711365 0.736713
RightToes  -4.65663e-010 0 -3.6325e-017
Spine  -4.12213 0.19048 2.55403
Spine1  12.7133 0.239495 -0.815554
HEad  -8.8632 2.175 -2.39974
LeftShoulder1  8.67677 -12.1479 -48.3899
LeftArm  6.36899 15.5652 -28.4606
LeftForeArm  19.8193 -19.8878 -4.60563
LeftHand  -0.244104 0.0205437 5.32207
RightShoulder  6.5924 10.2894 41.5605
RightArm  10.0024 -12.8936 26.8799
RightForeArm  5.49326 13.9381 8.00041
RightHand  -0.241607 -2.52298 -9.42725
LeftUpLeg  2.93558 6.20856 4.51697
LeftLeg  0.403796 12.5752 -4.33614
LeftFoot  -1.86083 0.0369069 -0.224824
LeftToes  4.18335e-011 1.59304e-011 3.38507e-012
76
root  2.10939 41.0762 -1.01541 -175.745 -87.8484 174.773
RightUpLeg  1.89726 -7.80253 -6.1505
RightLeg  2.06212 -0.545775 2.84607
RightFoot  -1.56556 -0.0692728 0.707787
RightToes  -4.65663e-010 0 -3.6325e-017
Spine  -4.06685 0.207031 2.37285
Spine1  12.8049 0.177477 -0.503312
HEad  -8.8556 2.46395 -2.65895
LeftShoulder1  8.68073 -12.1656 -48.357
LeftArm  5.61412 15.1576 -27.9824
LeftForeArm  21.255 -19.6222 -4.60708
LeftHand  -0.244104 0.0205437 5.32207
RightShoulder  6.58009 10.2709 41.5369
RightArm  6.30508 -12.1329 26.8396
RightForeArm  6.99668 12.1085 8.34029
RightHand  -0.284371 -2.21962 -10.1302
LeftUpLeg  2.98611 6.20398 4.51832
LeftLeg  0.387748 12.5362 -4.33598
LeftFoot  -1.83032 0.0375554 -0.22825
LeftToes  4.18335e-011 1.59304e-011 3.38507e-012
